/* XPM */
static char *_fb44b34b9ac4234d3e59edf6f02152bQxTr3jd1OIFFyPt6[] = {
/* columns rows colors chars-per-pixel */
"32 32 4 1 ",
"  c #3D2518",
". c #5B3926",
"X c #774931",
"o c #DD592D",
/* pixels */
"....X.XXo......X..XX.Xo..XX...XX",
"X..X..X o..X......X..XoX.......X",
"X....X oX..XX X.X....o..X.......",
".....oo XX...X.....oo ..XXX...X.",
"..ooo  ooooo....oooX oooo  X  X.",
"ooXX..XX oX oooo....X o  ooooooo",
"...XX..X oX....X.XX.X o X.X.....",
".XX..X.Xo.X..XX...XX.o.XX.XXXXX.",
"X....X. o..X..X.X....o.X....X.XX",
".XX...XoX..X.XX.XX..o ........XX",
"...X..o X.XX......ooooo..XX....X",
"....oo oX.XXX...oo  XX oooXX.XX ",
"Xooo XX.ooX  oooXX XXXXX.XoooX  ",
"o...XX....ooo...X..X.....X o.ooo",
"...X...X.. o.X..X..XX....XXo....",
"....XX.XXX o.X..........X..oX...",
"X.X...XX..o..X..XX..XX.XX.o..X.X",
".XX.......o.XX.X.X...X....o..X..",
"....XX.XXo X...X.X....X..o......",
"X.X.X  Xo  X......X.....o.XXX...",
"XX..Xooo.oo......XXX..oo..XXXX..",
"...oo  XX..oooo.X  ooo  oooX.XX.",
"ooo  o XX..X.X oooo...XXX  ooXX ",
"...XX.ooX.XX.XXX..XX.X...Xo  ooo",
"...X..X o...X.X..X.X.X.XXoXXX...",
"...X..XXo.XXX..X.....XX.o X.....",
"..XXX..X.o.XX....X..XX..oX..XX.X",
".XX..XX..oX...XX..XX...oX.XX.XX.",
"XX.....X.oXX...X...X...oX..X.X..",
".......X.o X....X......oXX.X....",
".....XX..o X.XX .....XXo  XXXX..",
"XX...X...oXX..XX...XXX oXX..X.X."
};
