/* XPM */
static char *_eb830d8acc54da49fead6c78938fdbfvcx6A9tnzT1shcVz[] = {
/* columns rows colors chars-per-pixel */
"32 32 8 1 ",
"  c None",
". c #720202",
"X c #C81313",
"o c #DF1515",
"O c #ED5324",
"+ c #F6CE26",
"@ c #EBFF80",
"# c #E7FFD8",
/* pixels */
"                                ",
"                                ",
"             .......            ",
"            ..XooXo..           ",
"         ......XXo....          ",
"       ...o.oXXX...Xo...        ",
"      ..XoX.XXXXXXXXooo..       ",
"     ..Xo..XXXXXXXXXXXXo..    ..",
"     .oOOXXXooOOXOoXXoXoo..   XX",
"    ..oOXo..XXoXXOoOXXoXXo.     ",
"    .oXXo..OOOXoXoOOoXXoXo.     ",
"    .oXX..OOOOOOOXXOXXXoXo.     ",
"   ..o...OO++OOOOO+XOOXXX...    ",
"   ....XOO+@OOOOOOX+OoXXX.o.    ",
"  ..oXXXoOOOOO+++OOOOoXXX.o.    ",
"  .oXXXXXOOO++@@@++OOOoXX.o..   ",
"  .oXXoXXOOO+@@@@@++OOoOoXX..   ",
" ...XoXOOOO+@@@##@@+OOOOXXXo.   ",
" .o.XoXOOOO+@@@#@@++OOOo.XOO..  ",
"..o.oXOO+@OO+@@@@@+OOOOX..XOo.  ",
".oO.XXXOO+OO++@@@+OOO+OXX.XOo.  ",
".oOoXooXOOOOOO+++OOO+OXXo.XXo.  ",
"..oXXoXXXoXOOOOOOOOOOXXo...X..  ",
" ..o....XXXoXOOOOOXXoo..oX.o.   ",
"  ...Xo...XXOO++OOOXXXXoOX...   ",
"   .oXOOX.o.XOOOXXoXXOOOXo..    ",
"   ..ooOOXX.oXOooXXXXXXX...     ",
"    ....oXXX.ooXXXX..o...      X",
"       ...oo...XXXOOo..        .",
"         ....oO.XOXo..         .",
"           ..oooX....           ",
"       .X   ......              "
};
