/* XPM */
static char *f3d3071b7c2f44dd8b0b7897787f51a4OIsxUtvIos2xXJFy[] = {
/* columns rows colors chars-per-pixel */
"32 32 5 1 ",
"  c None",
". c black",
"X c #3A0911",
"o c #811426",
"O c #A11B31",
/* pixels */
"                                ",
"                                ",
"                                ",
"                                ",
"                                ",
"                                ",
"                                ",
"                                ",
"                                ",
"                                ",
"                                ",
"                                ",
"                                ",
"                                ",
"                                ",
"                                ",
"                   XXXXXXXX     ",
"                 XXOOOOOOOOX    ",
"                XOOOOOOOOOOOX   ",
"               XOOOOOOOOOOOOX   ",
"          XXXXXXOOOOXoOOOOOOOX  ",
"       XXXOOOOOoXOOXoOOOOOOOoX  ",
"      XOOOOOOOOOOXXoOOOOOOOOOX  ",
"     XoOOOOOOOOOOooOOOOOOOOOoX  ",
"    XoOOOOOOOOOOOOOOOOOOOOOooX  ",
"   XoooooooooooooooooooooooooX  ",
" ...XXXXXXXXXXXXXXXXXXXXXXXXX   ",
"                                ",
"                                ",
"                                ",
"                                ",
"                                "
};
