/* XPM */
static char *result[] = {
/* columns rows colors chars-per-pixel */
"152 80 28 1 ",
"  c black",
". c #1A1A05",
"X c #44420C",
"o c #4E4E0E",
"O c #4E4E0F",
"+ c #56530F",
"@ c #636012",
"# c #676714",
"$ c #7E7A17",
"% c #8B8B1A",
"& c #92931B",
"* c #92931C",
"= c #94941C",
"- c #AAA51F",
"; c #B8B221",
": c #D8D928",
"> c #E0D928",
", c #EDE62B",
"< c #EFE82B",
"1 c #F2F32D",
"2 c #F2F32E",
"3 c #F5F32D",
"4 c #F5F32E",
"5 c #FBF32C",
"6 c #FAF32D",
"7 c #FBF32D",
"8 c #FBF32E",
"9 c None",
/* pixels */
"999999999999999999999999999999999999999999999999999999999999999999999999999999999999999999999999999999999999999999999999999999999999922  99999999911  99",
"999999999999999999999999999999999999999999999999999999999999999999999999999999999999999999999999999999999999999999999999999999999999922  99999999911  99",
"999999999999999999999999999999999999999999999999999999999999999999999999999999999999999999999999999999999999999999999999999999999999922  99999999911  99",
"999999999999999999999999999999999999999999999999999999999999999999999999999999999999999999999999999999999999999999999999999999999999922  99999999911  99",
"999999999999999999999999999999999999999999999999999999999999999999999999999999999999999999999999999999999999999999999999999999999999922  99999999911  99",
"999999999999999999999999999999999999999999999999999999999999999999999999999999999999999999999999999999999999999999999999999999999999922  99999999911  99",
"99999999999999999999999999999999999999999999999999999999999999999999999999999999999999999999999999999999999999999999999999999999999112222  99991111111  ",
"99999999999999999999999999999999999999999999999999999999999999999999999999999999999999999999999999999999999999999999999999999999999112222  99991111111  ",
"99999999999999999999999999999999999999999999999999999999999999999999999999999999999999999999999999999999999999999999999999999999999112222  99991111111  ",
"99999999999999999999999999999999999999999999999999999999999999999999999999999999999999999999999999999999999999999999999999999999999112222  99991111111  ",
"99999999999999999999999999999999999999999999999999999999999999999999999999999999999999999999999999999999999999999999999999999999999112222  99991111111  ",
"99999999999999999999999999999999999999999999999999999999999999999999999999999999999999999999999999999999999999999999999999999999999112222  99991111111  ",
"99999999999999999999999999999999999999999999999999999999999999999999999999999999999999999999999999999999999999999999999999999999999112222  99991111111  ",
"99999999999999999999999999999999999999999999999999999999999999999999999999999999999999999999999999999999999999999999999999999999999112222  99991111111  ",
"99999999999999999999999999999999999999999999999999999999999999999999999999999999999999999999999999999999999999999999999999999999999112222  99991111111  ",
"99999999999999999999999999999999999999999999999999999999999999999999999999999999999999999999999999999999999999999999999999999999999112222  99991111111  ",
"99999999999999999999999999999999999999999999999999999999999999999999999999999999999999999999999999999999999999999999999999999999999112222  99991111111  ",
"66  999999999999999999999966  999966X  999966  9999999999999999966   99999999999999999999911111111111  99999922  999999999999999999112222  99991111111  ",
"66  999999999999999999999966  999966X  999966  9999999999999999966   99999999999999999999911111111111  99999922  999999999999999999112222  99991111111  ",
"66  999999999999999999999966  999966X  999966  9999999999999999966   99999999999999999999911111111111  99999922  999999999999999999112222  99991111111  ",
"66  999999999999999999999966  999966X  999966  9999999999999999966   99999999999999999999911111111111  99999922  999999999999999999112222  99991111111  ",
"66  999999999999999999999966  999966X  999966  9999999999999999966   99999999999999999999911111111111  99999922  999999999999999999112222  99991111111  ",
"66  999999999999999999999966  999966X  999966  9999999999999999966   99999999999999999999911111111111  99999922  999999999999999999112222  99991111111  ",
"6666   999999999999999996666  999966X  999966  6666666  9999999966   666666  999999999991111  999991111  999922  %22222222  9999999112222  99991111111  ",
"6666   999999999999999996666  999966X  999966  6666666  9999999966   666666  999999999991111  999991111  999922  %22222222  9999999112222  99991111111  ",
"6666   999999999999999996666  999966X  999966  6666666  9999999966   666666  999999999991111  999991111  999922  %22222222  9999999112222  99991111111  ",
"6666   999999999999999996666  999966X  999966  6666666  9999999966   666666  999999999991111  999991111  999922  %22222222  9999999112222  99991111111  ",
"6666   999999999999999996666  999966X  999966  6666666  9999999966   666666  999999999991111  999991111  999922  %22222222  9999999112222  99991111111  ",
"6666   999999999999999996666  999966X  999966  6666666  9999999966   666666  999999999991111  999991111  999922  %22222222  9999999112222  99991111111  ",
"9966   9999999999999999966  999999999999999666622  <6666  9999996666622  6666  99999991111  99999999911  99992222222  992222  99999112222  99991111111  ",
"9966   9999999999999999966  999999999999999666622  <6666  9999996666622  6666  99999991111  99999999911  99992222222  992222  99999112222  99991111111  ",
"9966   9999999999999999966  999999999999999666622  <6666  9999996666622  6666  99999991111  99999999911  99992222222  992222  99999112222  99991111111  ",
"9966   9999999999999999966  999999999999999666622  <6666  9999996666622  6666  99999991111  99999999911  99992222222  992222  99999112222  99991111111  ",
"9966   9999999999999999966  999999999999999666622  <6666  9999996666622  6666  99999991111  99999999911  99992222222  992222  99999112222  99991111111  ",
"9966   9999999999999999966  99999988X  99996644OO9999966--  999966444OO999966--  9999911oo9999999999911  99992222=OO999999999999999112222  99991111111  ",
"9966   9999999999999999966  99999966X  99996622  999996666  999966222  99996666  9999911  9999999999911  99992222#  999999999999999112222  99991111111  ",
"9966   9999999999999999966  99999966X  99996622  999996666  999966222  99996666  9999911  9999999999911  99992222#  999999999999999112222  99991111111  ",
"9966   9999999999999999966  99999966X  99996622  999996666  999966222  99996666  9999911  9999999999911  99992222#  999999999999999112222  99991111111  ",
"9966   9999999999999999966  99999966X  99996622  999996666  999966222  99996666  9999911  9999999999911  99992222#  999999999999999112222  99991111111  ",
"9966   9999999999999999966  99999966X  99996622  999996666  999966222  99996666  9999911  9999999999911  99992222#  999999999999999112222  99991111111  ",
"9966   9999999999999999966  99999966X  999966  99999999966  999966   9999999966  9999911  9999999991111  999922  999999999999999999112222  99991111111  ",
"9966   9999999999999999966  99999966X  999966  99999999966  999966   9999999966  9999911  9999999991111  999922  999999999999999999112222  99991111111  ",
"9966   9999999999999999966  99999966X  999966  99999999966  999966   9999999966  9999911  9999999991111  999922  999999999999999999112222  99991111111  ",
"9966   9999999999999999966  99999966X  999966  99999999966  999966   9999999966  9999911  9999999991111  999922  999999999999999999112222  99991111111  ",
"9966   9999999999999999966  99999966X  999966  99999999966  999966   9999999966  9999911  9999999991111  999922  999999999999999999112222  99991111111  ",
"9966   9999999999999999966  99999966X  999966  99999999966  999966   9999999966  9999911  9999999991111  999922  999999999999999999112222  99991111111  ",
"9966   99999966  999999966  99999966X  999966  99999999911  999966   9999999966  99999111111111111111  99999922  999999999999999999112222  99991111111  ",
"9966   99999966  999999966  99999966X  999966  99999999911  999966   9999999966  99999111111111111111  99999922  999999999999999999112222  99991111111  ",
"9966   99999966  999999966  99999966X  999966  99999999911  999966   9999999966  99999111111111111111  99999922  999999999999999999112222  99991111111  ",
"9966   99999966  999999966  99999966X  999966  99999999911  999966   9999999966  99999111111111111111  99999922  999999999999999999112222  99991111111  ",
"9966   99999966  999999966  99999966X  999966  99999999911  999966   9999999966  99999111111111111111  99999922  999999999999999999112222  99991111111  ",
"9966@@+99999966  999999966  99999966X  999966  99999999933  999966   9999999966  9999911&&11111111111  99999922  9999999999999999991122**  999911111&&  ",
"996666;  999966  999996666  99999966X  999966  99999999966  999966   9999999966  9999911  999999999999999999922  9999999999999999999922  99999999911  99",
"996666;  999966  999996666  99999966X  999966  99999999966  999966   9999999966  9999911  999999999999999999922  9999999999999999999922  99999999911  99",
"996666;  999966  999996666  99999966X  999966  99999999966  999966   9999999966  9999911  999999999999999999922  9999999999999999999922  99999999911  99",
"996666;  999966  999996666  99999966X  999966  99999999966  999966   9999999966  9999911  999999999999999999922  9999999999999999999922  99999999911  99",
"996666;  999966  999996666  99999966X  999966  99999999966  999966   9999999966  9999911  999999999999999999922  9999999999999999999922  99999999911  99",
"999966;    666666  99966  9999999966X  999966  99999999966  999966   9999999966  9999911  999999999999999999922  999999999999999999999999999999999999999",
"999966;    666666  99966  9999999966X  999966  99999999966  999966   9999999966  9999911  999999999999999999922  999999999999999999999999999999999999999",
"999966;    666666  99966  9999999966X  999966  99999999966  999966   9999999966  9999911  999999999999999999922  999999999999999999999999999999999999999",
"999966;    666666  99966  9999999966X  999966  99999999966  999966   9999999966  9999911  999999999999999999922  999999999999999999999999999999999999999",
"999966;    666666  99966  9999999966X  999966  99999999966  999966   9999999966  9999911  999999999999999999922  999999999999999999999999999999999999999",
"999966;    666666  99966  9999999966X  999966  99999999966  999966   9999999966  9999911  999999999999999999922  999999999999999999999999999999999999999",
"999966666666699666666666  9999999966X  999966  99999999966  999966   9999999966  999991111  99999991111  999922  9999999999999999999922  99999999911  99",
"999966666666699666666666  9999999966X  999966  99999999966  999966   9999999966  999991111  99999991111  999922  9999999999999999999922  99999999911  99",
"999966666666699666666666  9999999966X  999966  99999999966  999966   9999999966  999991111  99999991111  999922  9999999999999999999922  99999999911  99",
"999966666666699666666666  9999999966X  999966  99999999966  999966   9999999966  999991111  99999991111  999922  9999999999999999999922  99999999911  99",
"999966666666699666666666  9999999966X  999966  99999999966  999966   9999999966  999991111  99999991111  999922  9999999999999999999922  99999999911  99",
"999977566>>7799776666,>>  9999999966X  999966  99999999966  999966   9999999966  999991111..999999911::  999922  9999999999999999999922..99999999911..99",
"999999966  9999996666$  999999999966X  999966  99999999966  999966   9999999966  99999991111111111111  99999922  999999999999999999112222  99991111111  ",
"999999966  9999996666$  999999999966X  999966  99999999966  999966   9999999966  99999991111111111111  99999922  999999999999999999112222  99991111111  ",
"999999966  9999996666$  999999999966X  999966  99999999966  999966   9999999966  99999991111111111111  99999922  999999999999999999112222  99991111111  ",
"999999966  9999996666$  999999999966X  999966  99999999966  999966   9999999966  99999991111111111111  99999922  999999999999999999112222  99991111111  ",
"999999966  9999996666$  999999999966X  999966  99999999966  999966   9999999966  99999991111111111111  99999922  999999999999999999112222  99991111111  ",
"999999999999999999999999999999999999999999999999999999999999999999999999999999999999999999999999999999999999999999999999999999999999911  99999999911  99",
"999999999999999999999999999999999999999999999999999999999999999999999999999999999999999999999999999999999999999999999999999999999999911  99999999911  99",
"999999999999999999999999999999999999999999999999999999999999999999999999999999999999999999999999999999999999999999999999999999999999911  99999999911  99",
"999999999999999999999999999999999999999999999999999999999999999999999999999999999999999999999999999999999999999999999999999999999999911  99999999911  99",
"999999999999999999999999999999999999999999999999999999999999999999999999999999999999999999999999999999999999999999999999999999999999911  99999999911  99",
"999999999999999999999999999999999999999999999999999999999999999999999999999999999999999999999999999999999999999999999999999999999999911  99999999911  99"
};
