/* XPM */
static char *result[] = {
/* columns rows colors chars-per-pixel */
"32 32 50 1 ",
"  c black",
". c #010101",
"X c #020202",
"o c gray1",
"O c #040404",
"+ c gray2",
"@ c #060606",
"# c #070707",
"$ c gray3",
"% c #090909",
"& c gray4",
"* c #0B0B0B",
"= c #0C0C0C",
"- c #0E0E0E",
"; c gray6",
": c #101010",
"> c #111111",
", c gray7",
"< c #131313",
"1 c gray8",
"2 c #161616",
"3 c #181818",
"4 c gray10",
"5 c #1B1B1B",
"6 c gray11",
"7 c #1D1D1D",
"8 c #202020",
"9 c #222222",
"0 c #232323",
"q c #252525",
"w c gray15",
"e c #272727",
"r c #282828",
"t c gray16",
"y c #2A2A2A",
"u c gray17",
"i c #2C2C2C",
"p c #2D2D2D",
"a c gray18",
"s c #2F2F2F",
"d c #313131",
"f c #323232",
"g c gray20",
"h c #343434",
"j c #353535",
"k c gray21",
"l c #373737",
"z c #434343",
"x c gray27",
"c c None",
/* pixels */
"cc#.X..qcc4. qcc.Xcccc.X6 .   X.",
"cc.    8cc5..acc .cccc .>      .",
"c6occcccc1.cc:=c  1sc7 .< &ccccc",
"cX.cccccc+ ccO.c  .rc. X> :ccccc",
":@cccccc;+cccc.%   ;6. .:X:ccccc",
"  cccccco.cccc         .> ,ccccc",
"  cccccc  cccc     X X .: >iaakc",
"  cccO c  cccc    @X$o .:.XooOOc",
"  cccl c. xfjd    cc9c .>.$ccccc",
"X.cccz c  .  O    ccyc .> :ccccc",
"c+kccz c  cccc    cccc .>.:ccccc",
"c.Xccz c  cccc    cccc .>.:ccccc",
"cc#q0* c  cccc .  cccc  >.%000qt",
"cc.   .c .cccc .. cccc X:@@     ",
"cccccccccccccccccccccccccccccccc",
"cccccccccccccccccccccccccccccccc",
"cccccccccccccccccccccccccccccccc",
"cccccccccccccccccccccccccccccccc",
"cX  .Xuc. cccc .   o   .2.   X.c",
"c yqe#lco cccc .. e0qqtp<o-qesXc",
"  ccccXu  cccc  . cccccc<.accc  ",
"  cccc t. cccc  . cccccc<.pccc  ",
"  cccc u  cccc  . cccccc<.accc  ",
"  cccc u. cccc .. cccccc<.accc  ",
"  cccc t. .cc  ..  X  +c>.acc.  ",
"  cccc u@. cc  *  4;-&1c>.fcc.$;",
"  cccc ico .O .c. cccccc< OX.occ",
"  cccc uc#X.Xo%c. cccccc<.%y -cc",
"  cccc tcc4 ojcc. cccccc> ac  &c",
"-.cccc+wcc4o#tcc. cccccc<.yc- .c",
"cX$  .qccccwcccc. ..   .<.acc  X",
"c+@##@gccccycccc@+#@###@3$hcc@+$"
};
