/* XPM */
static char *f8e3bdb008944a98e194bffad770d5d2eIiHTyRqBdmHQKQS[] = {
/* columns rows colors chars-per-pixel */
"32 31 33 1 ",
"  c None",
". c black",
"X c #010001",
"o c #010101",
"O c #030000",
"+ c #020101",
"@ c #000201",
"# c #000002",
"$ c #010102",
"% c #020102",
"& c #020202",
"* c #020204",
"= c #040404",
"- c #000F00",
"; c #090909",
": c gray5",
"> c #141313",
", c #151515",
"< c #181818",
"1 c gray10",
"2 c #232323",
"3 c #2F2F2F",
"4 c #323232",
"5 c #343434",
"6 c #3A3B3A",
"7 c #3F3F3F",
"8 c gray28",
"9 c gray33",
"0 c #585858",
"q c #B0291B",
"w c #CB1703",
"e c #DD1404",
"r c #E50D0E",
/* pixels */
"                                ",
"       .>      .*               ",
"      ...;4433..>               ",
"      ..........>               ",
"      ...........               ",
"      =.O..=O..=.,              ",
"      ....qw.Oqw.>              ",
"      ...-re=*re.>              ",
"      ............              ",
"      1...........              ",
"      .=..........1             ",
"      2..........,..            ",
"      ,...........>..   .>      ",
"      =...........>>.5  ...     ",
"      ..............>.6  ...    ",
"      ..............>,.   ..    ",
"      O..............>.9  ...   ",
"      ...............>>.  ..,   ",
"     :................,.  ..>   ",
"     =..................  ..>   ",
"     ...................  ..>   ",
"     ................... ...>   ",
"     ................... ..>>   ",
"     ......................>.   ",
"     ......................>    ",
"    ..,8..................>>    ",
"    ..> 7................>>     ",
"   0.....................>      ",
"   ......................       ",
"                                ",
"                                "
};
