/* XPM */
static char *result[] = {
/* columns rows colors chars-per-pixel */
"32 32 50 1 ",
"  c gray20",
". c gray28",
"X c gray31",
"o c #505050",
"O c #515151",
"+ c #5B5B5B",
"@ c #686868",
"# c gray43",
"$ c #717171",
"% c gray54",
"& c gray55",
"* c #8D8D8D",
"= c #8E8E8E",
"- c gray56",
"; c #909090",
": c gray57",
"> c #929292",
", c gray58",
"< c #959595",
"1 c gray59",
"2 c #979797",
"3 c gray60",
"4 c gray61",
"5 c #9D9D9D",
"6 c #A0A0A0",
"7 c #A2A2A2",
"8 c gray64",
"9 c #A5A5A5",
"0 c gray66",
"q c #A9A9A9",
"w c #AAAAAA",
"e c gray67",
"r c gray68",
"t c #B2B2B2",
"y c gray72",
"u c gray73",
"i c #BBBBBB",
"p c gray77",
"a c #C5C5C5",
"s c #C8C8C8",
"d c #D2D2D2",
"f c gray84",
"g c #D7D7D7",
"h c #D8D8D8",
"j c gray85",
"k c #DADADA",
"l c gray89",
"z c #E6E6E6",
"x c #E7E7E7",
"c c None",
/* pixels */
"ccccccccccccccwccccccccccccccccc",
"ccccccccccccc&&&wccccccccccccccc",
"ccccccccccccwqwww&&zzzzzcccccccc",
"cccccccccccw&wwwwwww;9wwccccc7cc",
"cccccccccr-wwwwwwwwwwwwwcccc&wcc",
"ccccccccrqwwwwwwwwwwwwwwkcp4wccc",
"swyjzccs<wwwwwwwwwwwwwwww2wwwccc",
"cw&wwwwwwwwwwwwwwwwwwwwwwwwwcccc",
"ccw1wwwwwwwwwwwwwwwwwwwwwwwwcccc",
"cccewwwwwwwwwww3,wwwwwwwwwwwcccc",
"ccccwwwwwwwww&&&&&&wwwwwwwwccccc",
"ccccdwwwwwww&&%&&&&&qwwwwwwccccc",
"cccccwwwwww&&&&##&&&&wwwwwwicccc",
"ccccc:wwwww&&&+Oo #&&&wwwwww0xcc",
"ccccc&wwww&&&#OOOOO&&&wwwwwwww5z",
"cccch0wwwww&&OOOOOO#&&wwwwwww,ac",
"cccc&wwwwww>&@OOOOX#&wwwwwwwwscc",
"ccc6&wwwwwwww&   . &wwwwwwwwuccc",
"ccccs8wwwwwwwwwwwwwwwwwwwwwwsccc",
"ccccc&wwwwwwwuuuuuuwwwwwwwwwsccc",
"ccccc&wwwwwwwwwwwwwwwwwwwwwwlccc",
"ccccs&wwwwwwwwwwwwwwwwwwwwwwcccc",
"cccc&wwwwwwwwwwwwwwwwwwwwwwwcccc",
"cccwwwwwwwwwwwwwwwwwwwwwwwwzcccc",
"ccf&wwwwwwwwwwwwwwwwwwwwwwsccccc",
"cc&wwwwwwwwwwwwwwwwwwwwwwwcccccc",
"c$sccz=wwwsw&wwwwwwwwwwwwicccccc",
"ccccccc8*wccccswwwwwzwwwwwcccccc",
"cccccccczcccccccswwxccwwwwcccccc",
"ccccccccccccccccctcccccwwwcccccc",
"ccccccccccccccccccccccccwwcccccc",
"cccccccccccccccccccccccccgsccccc"
};
