/* XPM */
static char *_a167de43b6b4b85f5fdcf87125a0f03cq6gOkTiWmhs2mOr[] = {
/* columns rows colors chars-per-pixel */
"32 32 5 1 ",
"  c None",
". c #1C86B0",
"X c #10B3EE",
"o c #2CE8F5",
"O c #B3F6FB",
/* pixels */
"                                ",
"                                ",
"                                ",
"                                ",
"                                ",
"              XX                ",
"             XXXX               ",
"            XXXoXX              ",
"            XXoooX              ",
"           XXXooOXX             ",
"           XXooooOX             ",
"          .XXooooOXX            ",
"          .XXoooooOX            ",
"         .XXXoooOoOXX           ",
"         .XXXoooooooX           ",
"         .XXXXooooooX           ",
"         .XXXXooooooX           ",
"         .XXXXXooooXX           ",
"         .XXXXXooooXX           ",
"          .XXXXXooX.            ",
"          .XXXXXXXX.            ",
"           .XXXXXX.             ",
"           .XX.XXX.             ",
"            ..XX..              ",
"                                ",
"                                ",
"                                ",
"                                ",
"                                ",
"                                ",
"                                ",
"                                "
};
